<svg height="360px" style="enable-background:new 0 0 324 360;" version="1.1" viewBox="0 0 324 360" width="324px" x="0px" xml:space="preserve" xmlns="http://www.w3.org/2000/svg" xmlns:xlink="http://www.w3.org/1999/xlink" y="0px">
 <g id="base-layer">
  <path d="M128.166,177.106c-0.194,0.061-0.389,0.125-0.583,0.191   c-13.815,3.637-27.397,4.479-35.647-0.652c-8.251-5.131-32.534-26.112-31.989-27.912c0,0-4.437-10.644-6.85-14.817   c-2.412-4.174-2.256-17.843-7.394-20.102c-5.136-2.259-12.491-2.757-11.286,2.871c1.207,5.63,9.379,14.053,7.822,16.159   c-1.555,2.105-9.145,4.402-15.838,4.25c-6.693-0.153-21.364,4.288-24.284,7.35c-2.919,3.064-3.58,9.803,2.997,7.812   c6.577-1.992,18.291-8.805,19.73-5.973c1.439,2.833,4.748,4.556-1.518,7.543c-6.265,2.987-18.095,21.825-13.737,21.594   c4.358-0.23,20.508-17.65,22.143-15.966c1.634,1.686,3.814,1.57,0,7.083c-3.813,5.514-6.459,11.219-3.501,13.592   c2.958,2.374,8.405-1.454,8.833-5.397c0.428-3.943,3.97-12.1,3.97-12.1s6.46,2.948,9.963,3.524   c3.502,0.572,11.402-0.73,11.402-0.73s23.777,21.136,31.599,23.127c0,0,15.016,7.967,30.247,8.168   c-0.56,1.724-1.15,3.379-1.766,4.895c-1.353,3.326-4.162,12.44-5.378,23.427c-6.875,0.182-12.514,2.35-18.068,6.791   c-5.002,3.843-10.311,7.283-15.875,10.288c-2.266,1.235-4.454,1.994-7.028,2.3c-2.136,0.204-4.292-0.065-6.308-0.788   c-4.518-1.693-9.511-5.565-13.432-8.941c-2.731-2.405-5.616-4.637-8.636-6.682c-9.437-6.61-22.303-4.908-29.321,3.785   c-3.842,4.76-5.88,10.986-5.791,17.041c0.021,10.931,9.034,19.786,20.148,19.786c9.452-0.001,17.114-7.539,17.114-16.838   c0-7.98-6.575-14.45-14.686-14.451c-2.749,0-4.977,2.192-4.977,4.896s2.228,4.896,4.977,4.896c2.614,0,4.733,2.085,4.733,4.657   c0,3.892-3.206,7.046-7.161,7.046c-5.771,0-10.127-4.537-10.195-10.109c-0.064-3.911,1.216-7.729,3.631-10.833   c2.328-2.829,5.907-4.371,9.599-4.134c2.345,0.203,4.324,0.984,6.253,2.302c3.016,2.06,4.98,3.6,7.738,5.989   c2.256,1.943,4.587,3.802,6.988,5.569c9.608,7.177,20.308,9.148,31.176,3.074c5.582-3.017,12.343-7.299,17.297-11.229   c1.877-1.506,3.976-2.722,6.223-3.607c1.634-0.502,3.317-0.82,5.019-0.952c-0.024,6.062,0.611,12.323,2.327,18.243   c-0.024,0.01-0.048,0.02-0.073,0.03c0,0-15.879,16.145-22.761,33.85c-6.881,17.705-6.881,38.538,19.585,34.371   c19.584-1.041,26.465,5.729,19.055,10.414c-7.411,4.688-22.761,10.417-23.29,13.54c-0.53,3.125,1.058,6.772,1.058,6.772   l3.705,2.602l4.764,0.522c0,0,5.292,3.645,6.881,3.124c1.588-0.52,7.411,2.082,12.174,1.562c4.763-0.521,8.998-5.729,8.998-8.332   s8.469-10.416,10.058-13.541c1.587-3.124,5.821-21.352,0-23.955c-5.824-2.604-21.174-3.125-24.349-3.125   c-3.176,0-19.586-0.521-14.822-15.103c2.958-9.054,8.365-17.505,12.04-22.612c6.648,5.259,15.932,8.828,28.718,9.594   c31.114-0.766,50.513-14.466,55.883-32.628c3.03,1.648,10.71,6.297,18.954,14.977c10.631,11.19-3.985,18.547-6.856,19.879   c-2.873,1.332-16.532,8.246-20.67,13.044c-4.137,4.799,7.595,19.508,10.386,21.667c2.79,2.16,13.836,5.672,14.967,8.027   c1.128,2.355,7.216,5.287,11.75,3.76c4.535-1.528,8.673-6.327,10.333-6.522c1.662-0.194,4.871-5.713,4.871-5.713l4.082-2.471   l2.222-3.91c0,0-0.144-3.963-1.977-6.567s-18.2-1.344-26.936-2.473c-8.734-1.13-5.444-10.14,12.722-17.416   c25.744-7.338,16.712-26.179,2.813-39.309c-13.9-13.127-36.967-21.63-36.967-21.63c-0.125,0.042-0.249,0.084-0.371,0.127   c-3.043-11.599-6.677-22.675-9.784-31.423c13.706-1.926,25.916-9.138,25.916-9.138c7.719-2.344,30.481-24.535,30.481-24.535   s7.953,0.943,11.423,0.211c3.474-0.733,9.787-3.972,9.787-3.972s3.921,7.987,4.534,11.905c0.612,3.921,6.234,7.499,9.076,4.993   c2.844-2.506-0.067-8.084-4.136-13.417c-4.067-5.335-1.885-5.319-0.332-7.077c1.554-1.757,18.505,14.913,22.866,14.944   c4.367,0.032-8.334-18.25-14.733-20.95c-6.398-2.699-3.176-4.568-1.868-7.464c1.306-2.895,13.325,3.381,19.988,5.071   c6.663,1.689,5.686-5.01,2.626-7.938c-3.059-2.927-17.921-6.699-24.601-6.242c-6.679,0.456-14.369-1.494-16.022-3.525   c-1.652-2.035,6.116-10.819,7.057-16.497c0.941-5.677-6.383-4.846-11.408-2.356c-5.024,2.489-4.229,16.137-6.443,20.415   c-2.213,4.279-6.147,15.113-6.147,15.113c0.63,1.773-22.645,23.833-30.646,29.335c-7.37,5.063-19.496,5.274-32.282,2.924   c23.603-11.061,39.828-31.989,46.404-55.824c17.556-2.861,28.589-17.598,26.276-35.644c-2.06-16.058-15.566-27.463-34.638-25.853   c-14.41-23.492-34.354-39.418-68.878-42.696c2.354-4.634,11.406-11.5,9.557-16.06c-5.476,2.315-10.529,5.047-13.935,9.401   c-1.522-5.42-6.217-7.724-11.943-9.008c1.533,5.15,3.068,10.298,5.973,14.1c-7.943-3.022-16.752-5.193-28.267-4.701   c1.076,4.44,12.308,4.323,13.536,8.618c-30.188,7.25-49.012,25.681-60.117,51.705c-18.042,0.428-30.352,11.566-31.851,27.812   c-1.665,18.052,11.499,35.158,32.249,34.077c5.552,14.109,14.031,25.493,25.48,34.471   C116.093,170.473,121.767,174.142,128.166,177.106L128.166,177.106L128.166,177.106z M180.833,175.448   c-11.646-0.296-42.342-1.078-44.933-1.144c-16.785-5.355-29.194-16.077-36.053-30.94c-2.653-11.167,2.245-19.738,7.166-25.854   c-4.06-5.628-6.955-7.921-8.361-16.059c-0.389-2.26-1.562-4.357-1.592-6.268c-0.449-29.562,44.267-44.74,66.488-24.677   c6.206-6.036,14.16-10.352,23.887-12.926c34.045-5.654,55.621,28.032,34.239,51.312c5.49,6.385,12.417,16.671,7.564,29.379   C222.81,155.106,203.641,169.71,180.833,175.448L180.833,175.448z M205.581,234.945c0,16.395-18.129,29.685-40.493,29.685   c-22.363,0-40.492-13.29-40.492-29.685s18.129-29.686,40.492-29.686C187.452,205.26,205.581,218.551,205.581,234.945   L205.581,234.945z M83.921,85.392c0.565,1.186-0.176,2.099-0.398,3.525c-5.329,1.156-10.755,2.215-11.546,7.834   c2.818,0.026,6.908-2.079,10.75-2.351c-0.835,6.556-0.312,14.489,0,21.153C61.202,115.855,64.832,84.417,83.921,85.392   L83.921,85.392z M246.357,104.193c-0.945-6.252,0.15-14.511-1.195-20.369c3.102-0.734,7.436-0.259,11.147-0.391   c-0.988-3.47-6.442-5.933-12.342-5.876c0-0.914,0-1.827,0-2.741c6.626-2.419,15.315,4.315,16.722,9.401   C263.478,94.312,256.375,103.908,246.357,104.193L246.357,104.193z" style="fill-rule:evenodd;clip-rule:evenodd;">
  </path>
  <path d="M161.838,166.832c18.472,6.94,25.414-20.308,11.709-25.045   C156.879,136.022,147.861,159.151,161.838,166.832L161.838,166.832z" style="fill-rule:evenodd;clip-rule:evenodd;">
  </path>
  <path d="M156.778,121.82c2.177,6.532,18.916,4.699,17.915-1.958   C173.752,113.596,157.131,114.936,156.778,121.82L156.778,121.82z" style="fill-rule:evenodd;clip-rule:evenodd;">
  </path>
  <path d="M192.238,91.603c-7.758,3.629-8.385,30.684,4.499,28.792   C207.497,118.816,206.163,85.096,192.238,91.603L192.238,91.603z" style="fill-rule:evenodd;clip-rule:evenodd;">
  </path>
  <path d="M171.987,244.333c1.262-1.431-2.445-5.996-9.015-6.016   c-6.569,0.018-10.281,4.584-9.019,6.016c1.176,1.521,5.027,0.757,9.018,0.861C166.964,245.091,170.812,245.854,171.987,244.333   L171.987,244.333z" style="fill-rule:evenodd;clip-rule:evenodd;">
  </path>
  <path d="M136.481,94.655c-9.867,2.663-12.147,26.922-2.116,29.13   C147.641,126.706,148.816,98.372,136.481,94.655L136.481,94.655z" style="fill-rule:evenodd;clip-rule:evenodd;">
  </path>
 </g>
</svg>