<?xml version="1.0" encoding="iso-8859-1"?>
<!-- Generator: Adobe Illustrator 19.0.0, SVG Export Plug-In . SVG Version: 6.00 Build 0)  -->
<svg version="1.1" id="Capa_1" xmlns="http://www.w3.org/2000/svg" xmlns:xlink="http://www.w3.org/1999/xlink" x="0px" y="0px"
	 viewBox="0 0 512 512" style="enable-background:new 0 0 512 512;" xml:space="preserve">
<g>
	<g>
		<path d="M408.306,166.131v-39.637c-4.86,0.939-9.871,1.447-15,1.447c-5.129,0-10.14-0.508-15-1.447v39.637l-61.313,34.555v71.282
			h30v-53.753l46.313-26.101l46.313,26.101v53.753h30v-71.282L408.306,166.131z"/>
	</g>
</g>
<g>
	<g>
		<path d="M243.943,318.652c-18.209,18.177-43.154,28.892-70.02,28.892h-0.002c-13.04,0-25.795-2.546-37.914-7.565
			c-12.357-5.118-23.126-12.467-32.046-21.382L87.974,512h171.951L243.943,318.652z"/>
	</g>
</g>
<g>
	<g>
		<path d="M325.032,88.581c-6.788-11.654-10.697-25.18-10.697-39.61s3.909-27.957,10.696-39.61H159.627
			c6.787,11.653,10.696,25.18,10.696,39.61s-3.909,27.957-10.696,39.61H325.032z"/>
	</g>
</g>
<g>
	<g>
		<path d="M154.07,96.881c-14.444,18.863-37.178,31.06-62.718,31.06c-3.547,0-7.034-0.258-10.459-0.714l21.66,52.292
			c18.318-19.039,43.863-30.307,71.423-30.307c0.594,0,1.187,0.011,1.78,0.022L154.07,96.881z"/>
	</g>
</g>
<g>
	<g>
		<path d="M200.411,184.494c-8.461-3.505-17.354-5.282-26.434-5.282c-28.079,0-53.166,16.762-63.912,42.704
			c-14.59,35.226,2.197,75.755,37.423,90.346c8.46,3.504,17.354,5.281,26.434,5.282h0.001c28.078,0,53.164-16.762,63.91-42.704
			C252.424,239.614,235.636,199.085,200.411,184.494z"/>
	</g>
</g>
<g>
	<g>
		<path d="M91.352,0C64.349,0,42.381,21.968,42.381,48.971s21.968,48.971,48.971,48.971c27.002-0.001,48.971-21.969,48.971-48.971
			C140.323,21.968,118.354,0,91.352,0z"/>
	</g>
</g>
<g>
	<g>
		<path d="M393.306,0c-27.003,0-48.971,21.968-48.971,48.971s21.968,48.971,48.971,48.971c27.003,0,48.971-21.969,48.971-48.971
			C442.277,21.968,420.309,0,393.306,0z"/>
	</g>
</g>
<g>
</g>
<g>
</g>
<g>
</g>
<g>
</g>
<g>
</g>
<g>
</g>
<g>
</g>
<g>
</g>
<g>
</g>
<g>
</g>
<g>
</g>
<g>
</g>
<g>
</g>
<g>
</g>
<g>
</g>
</svg>
